<?xml version="1.0" encoding="utf-8"?>
<!-- Generator: Adobe Illustrator 27.5.0, SVG Export Plug-In . SVG Version: 6.00 Build 0)  -->
<svg version="1.1" id="Layer_1" xmlns="http://www.w3.org/2000/svg" xmlns:xlink="http://www.w3.org/1999/xlink" x="0px" y="0px"
	 viewBox="0 0 4000 4000" style="enable-background:new 0 0 4000 4000;" xml:space="preserve">
<g>
	<g>
		<g>
			<rect x="0" y="0" style="fill:#FFD684;" width="4000" height="4000"/>
		</g>
	</g>
	<g style="opacity:0.25;">
		<ellipse style="fill:#6B184E;" cx="2045" cy="3415.75" rx="940.435" ry="103.592"/>
	</g>
	<g>
		<g>
			<g>
				<path style="fill:#F7AF41;" d="M762.677,2807.952c0,0-54.05,171.831,348.377-74.396
					c402.427-246.226,1406.89-434.414,1882.066-374.329s139.71-1069.413-212.944-1250.743S1324.488,1710.13,762.677,2807.952z"/>
			</g>
			<g style="opacity:0.3;">
				<path style="fill:#6C184E;" d="M794.63,2769.932c0,0-86.003,209.851,316.424-36.376
					c402.427-246.226,1406.89-434.414,1882.066-374.329s139.71-1069.413-212.944-1250.743S1356.441,1672.11,794.63,2769.932z"/>
			</g>
			<g>
				<path style="fill:#6C184E;" d="M832.058,2871.357c-21.14,0-37.859-5.039-50.268-15.073
					c-37.92-30.674-17.417-90.498-16.526-93.027c0.276-0.786,0.603-1.548,0.981-2.285
					c258.223-504.59,591.387-873.955,825.405-1094.961c296.558-280.068,609.49-486.68,858.557-566.855
					c143.748-46.275,257.605-48.662,338.423-7.109c128.069,65.85,261.694,254.146,357.449,503.687
					c93.826,244.517,124.641,485.112,80.422,627.891c-31.88,102.92-99.929,156.411-197.913,156.421
					c-12.146,0-24.734-0.82-37.788-2.476c-488.916-61.821-1485.129,136.216-1870.098,371.758
					C987.305,2830.947,891.941,2871.357,832.058,2871.357z M799.802,2776.563c-3.423,10.781-8.833,39.663,5.298,51.016
					c11.856,9.521,68.252,29.746,296.306-109.795c190.737-116.704,526.016-227.656,919.863-304.404
					c381.313-74.312,745.481-101.426,974.17-72.49c99.614,12.544,165.491-30.542,195.74-128.208
					c41.885-135.229,11.375-366.558-79.622-603.701c-91.206-237.691-221.423-423.164-339.836-484.053
					c-70.747-36.372-178.01-33.12-310.183,9.424c-244.001,78.545-551.809,282.124-844.5,558.54
					C1385.33,1911.719,1055.537,2277.314,799.802,2776.563z"/>
			</g>
			<g>
				<g>
					<path style="fill:#FFCE00;" d="M2805.109,1324.829c-55.847-12.838,5.562-33.815-68.477-107.642
						c-74.038-73.827-155.41-13.139-155.41-13.139c13.21-27.051,16.221-52.186,2.028-72.069
						c-63.711-89.251-230.986-33.395-292.201-105.003c-61.215-71.609-207.385-5.945-207.385-5.945
						S1210.813,1542.02,960.938,2142.134c-249.875,600.115-230.794,784.311-122.192,742.769
						c108.602-41.542,188.65-135.172,268.18-61.406c79.53,73.765-19.777,212.059,76.39,280.212
						c53.856,38.168,178.545-30.349,118.628-132.598c-59.917-102.249-139.266-291.772-4.865-393.443
						c134.401-101.671,442.99-155.773,424.763-12.98c-45.173,353.888,331.332,203.807,214.397,54.262
						c-99.308-127.002-7.949-349.965,213.479-227.204c185.854,103.039,162.232-37.263,345.566-97.501
						c136.758-44.935,388.412-46.403,388.412-46.403c176.605-103.723,16.947-154.92,16.947-154.92s147.976-113.945,110.868-192.66
						c-37.108-78.716-19.113-202.745-15.835-328.295C2998.952,1446.416,2860.956,1337.667,2805.109,1324.829z"/>
				</g>
				<g style="opacity:0.3;">
					<path style="fill:#6C184E;" d="M2805.109,1324.829c-55.847-12.838,5.562-33.815-68.477-107.642
						c-74.038-73.827-155.41-13.139-155.41-13.139c13.21-27.051,16.221-52.186,2.028-72.069
						c-63.711-89.251-230.986-33.395-292.201-105.003c-61.215-71.609-207.385-5.945-207.385-5.945s-20.301,12.12-55.551,34.756
						c273.077,71.761,836.7,301.828,732.938,1120.848c0,0-1090.052,78.217-1389.723,264.461
						c-215.534,133.953-432.14,385.734-600.184,418.044c12.027,30.784,36.015,37.845,67.6,25.763
						c108.602-41.542,188.65-135.172,268.18-61.406c79.53,73.765-19.777,212.059,76.39,280.212
						c53.856,38.168,178.545-30.349,118.628-132.598c-59.917-102.249-139.266-291.772-4.865-393.443
						c134.401-101.671,442.99-155.773,424.763-12.98c-45.173,353.888,331.332,203.807,214.397,54.262
						c-99.308-127.002-7.949-349.965,213.479-227.204c185.854,103.039,162.232-37.263,345.566-97.501
						c136.758-44.935,388.412-46.403,388.412-46.403c176.605-103.723,16.947-154.92,16.947-154.92s147.976-113.945,110.868-192.66
						c-37.108-78.716-19.113-202.745-15.835-328.295C2998.952,1446.416,2860.956,1337.667,2805.109,1324.829z"/>
				</g>
				<g style="opacity:0.65;">
					<g>
						<path style="fill:#FFFFFF;" d="M2852.822,1352.904c4.853,1.116,10.358,3,16.304,5.512
							c-15.36-11.221-30.121-20.026-43.017-25.982C2827.359,1342.029,2831.71,1348.051,2852.822,1352.904z"/>
					</g>
					<g>
						<path style="fill:#FFFFFF;" d="M2949.834,2121.5c-0.315-0.307-0.627-0.617-0.948-0.919c-0.339,0.265-0.531,0.414-0.531,0.414
							S2948.894,2121.17,2949.834,2121.5z"/>
					</g>
					<g>
						<path style="fill:#FFFFFF;" d="M2628.935,1232.123c0,0,47.723-35.519,103.321-19.043
							c-32.245-29.782-65.515-35.001-92.614-31.508C2641.978,1196.915,2637.743,1214.088,2628.935,1232.123z"/>
					</g>
					<g>
						<path style="fill:#FFFFFF;" d="M2570.583,1117.34c-55.23-53.197-159.071-37.587-229.493-59.844
							C2388.874,1108.91,2494.742,1090.668,2570.583,1117.34z"/>
					</g>
					<g>
						<path style="fill:#FFFFFF;" d="M2083.664,1021.031c0,0-388.474,231.886-721.289,564.44
							c-6.481,4.863-12.752,10.382-18.6,16.704c-3.69,3.988-6.996,8.139-10.091,12.356
							c-154.759,159.004-294.386,339.41-372.746,527.603c-234.651,563.551-232.114,760.306-140.999,747.789
							c-31.424-72.512,9.357-288.966,188.712-719.714c67.461-162.019,180.341-318.261,309.183-460.05
							c2.657,4.846,5.954,9.294,10.081,13.112c28.619,26.477,82.12,15.189,119.499-25.214
							c37.379-40.402,44.48-94.619,15.861-121.096c-2.794-2.585-5.886-4.704-9.117-6.577
							c322.071-309.284,654.67-546.223,654.67-546.223s112.921-15.621,181.308,1.851
							C2228.411,956.044,2083.664,1021.031,2083.664,1021.031z"/>
					</g>
				</g>
				<g>
					<path style="fill:#6C184E;" d="M1220.454,3132.847c-17.703,0-34.443-4.565-47.827-14.053
						c-58.569-41.509-54.98-105.054-51.814-161.118c2.651-46.948,5.159-91.299-26.462-120.625
						c-44.412-41.191-87.053-20.352-158.594,20.044c-28.34,15.996-57.642,32.544-90.405,45.073
						c-39.326,15.044-62.793,2.524-75.562-10.62c-81.523-83.94,49.668-457.729,174.08-756.519
						c130.54-313.511,431.174-604.155,660.388-792.764c247.656-203.789,467.737-335.801,469.932-337.109
						c0.613-0.366,1.248-0.698,1.899-0.991c6.482-2.91,159.6-70.405,229.014,10.801c24.009,28.081,72.034,33.11,122.876,38.438
						c61.753,6.465,131.743,13.799,170.317,67.832c9.902,13.867,14.089,29.815,12.566,47.671
						c38.748-12.275,91.694-11.807,138.826,35.191c44.348,44.224,45.767,73.979,46.614,91.758c0.11,2.285,0.254,5.288,0.518,6.812
						c1.15,0.698,4.431,2.305,12.432,4.146l0,0c64.321,14.785,208.435,130.474,204.907,265.64
						c-0.725,27.739-2.166,55.474-3.557,82.295c-4.817,92.749-9.365,180.356,17.634,237.627
						c33.545,71.162-49.27,157.104-92.952,195.757c21.118,11.782,46.321,31.973,49.677,62.271
						c4.16,37.529-25.901,74.619-91.902,113.384c-2.805,1.646-5.999,2.524-9.253,2.544c-2.49,0.015-250.359,1.982-382.751,45.479
						c-65.945,21.67-102.947,53.608-135.593,81.787c-60.745,52.437-104.104,81.191-224.709,14.316
						c-82.646-45.811-153.731-44.36-195.024,3.999c-43.294,50.708-41.065,136.646,5.073,195.654
						c33.806,43.232,35.322,93.745,4.055,135.122c-37.969,50.244-111.699,71.655-167.866,48.779
						c-40.02-16.313-104.085-67.769-83.489-229.116c2.983-23.374-4.495-39.395-23.538-50.425
						c-70.207-40.669-268.237,2.197-371.733,80.488c-129.312,97.817-36.318,290.884,9.663,369.351
						c29.519,50.371,23.484,102.139-16.145,138.481C1278.538,3121.528,1248.311,3132.847,1220.454,3132.847z M1043.152,2777.695
						c25.64,0,51.169,8.896,76.345,32.246c44.373,41.157,41.111,98.887,38.232,149.824c-3.005,53.218-5.603,99.18,36.277,128.862
						c20.083,14.224,57.983,7.08,82.751-15.635c15.415-14.136,37.114-44.961,9.233-92.539
						c-50.979-86.987-153.037-301.816-0.068-417.534c106.26-80.376,321.819-135.566,412.576-82.993
						c32.163,18.633,46.577,48.755,41.682,87.1c-12.944,101.406,8.635,168.95,60.767,190.195
						c40.708,16.592,96.519,0.078,124.409-36.826c12.248-16.211,28.057-49.468-3.684-90.059
						c-56.575-72.354-58.362-178.843-4.065-242.437c52.966-62.046,143.081-66.65,241.074-12.329
						c104.163,57.759,130.383,35.122,182.62-9.971c33.523-28.936,75.242-64.946,148.21-88.921
						c128.806-42.319,351.638-46.816,389.026-47.275c63.427-38.13,70.947-63.208,69.677-74.888
						c-2.456-22.588-40.219-39.766-53.254-44.004c-6.519-2.119-11.345-7.681-12.515-14.438c-1.169-6.753,1.482-13.608,6.909-17.798
						c35.317-27.241,130.491-116.977,105.432-170.137c-30.962-65.674-26.177-157.788-21.113-255.307
						c1.379-26.592,2.807-54.087,3.52-81.348c2.935-112.475-123.994-216.631-176.225-228.638
						c-33.525-7.705-40.486-21.841-41.602-45.229c-0.669-14.024-1.584-33.233-35.789-67.339
						c-61.509-61.323-128.54-13.428-131.365-11.367c-6.851,5.034-16.292,4.756-22.817-0.703c-6.523-5.454-8.518-14.629-4.788-22.271
						c16.89-34.59,6.882-48.613,3.594-53.218c-28.896-40.479-84.844-46.338-144.075-52.544
						c-55.82-5.845-113.54-11.89-147.131-51.187c-42.466-49.673-146.782-18.34-184.773-1.533
						c-15.715,9.483-227.461,138.276-464.902,333.716c-225.81,185.859-521.76,471.724-649.316,778.066
						c-91.453,219.639-151.968,395.649-179.866,523.14c-31.477,143.848-11.763,183.174-1.826,193.408
						c2.727,2.798,11.018,11.328,35.825,1.851c30.195-11.553,58.279-27.407,85.439-42.739
						C958.94,2801.543,1001.187,2777.695,1043.152,2777.695z"/>
				</g>
			</g>
			<g>
				<path style="fill:#6C184E;" d="M2215.369,2235.464c105.593-19.048,211.597-36.177,318.191-49.961
					c53.298-6.865,106.748-12.881,160.403-17.568c53.652-4.668,107.51-8.057,161.66-9.092c8.936-0.171,16.318,6.934,16.489,15.869
					c0.168,8.936-6.936,16.318-15.872,16.489c-0.254,0.005-0.505,0.005-0.757,0l-0.103-0.005
					c-53.123-1.655-106.519-0.996-159.917,0.957c-53.408,1.973-106.843,5.273-160.237,9.443
					C2428.428,2209.98,2321.782,2221.743,2215.369,2235.464z"/>
			</g>
		</g>
		<g style="opacity:0.3;">
			<g>
				<path style="fill:#6C184E;" d="M2556.313,1107.917c0,0,0.547-0.4,1.49-1.043c-0.252-0.178-0.496-0.367-0.749-0.543
					C2556.801,1106.861,2556.572,1107.386,2556.313,1107.917z"/>
			</g>
			<g>
				<path style="fill:#6C184E;" d="M2970.765,1475.835c-3.277,125.55-21.272,249.579,15.836,328.294
					c1.995,4.232,3.425,8.57,4.402,12.983c-6.999-71.143,2.392-157.767,4.672-245.146c0.905-34.668-8.995-68.04-24.93-98.481
					C2970.736,1474.27,2970.786,1475.048,2970.765,1475.835z"/>
			</g>
			<g>
				<path style="fill:#6C184E;" d="M2992.554,1830.548c1.044,75.476-116.821,166.241-116.821,166.241s61.731,19.806,65.949,59.727
					c40.694-40.054,93.765-105.48,69.829-156.255C3001.878,1879.828,2995.981,1856.321,2992.554,1830.548z"/>
			</g>
		</g>
		<g>
			<g>
				
					<ellipse transform="matrix(0.8397 -0.543 0.543 0.8397 -403.5155 1418.9832)" style="fill:#EE1822;" cx="2202.08" cy="1393.07" rx="268.996" ry="214.684"/>
			</g>
			<g style="opacity:0.65;">
				<path style="fill:#FFFFFF;" d="M2241.306,1604.879c-131.937,34.188-247.717-32.055-258.601-147.958
					c-10.885-115.902,87.247-237.575,219.184-271.762c97.027-25.142,185.257,4.078,229.515,67.373
					c-44.211-74.381-142.073-110.031-250.224-82.007c-139.911,36.254-243.973,165.279-232.431,288.186
					c11.543,122.907,134.32,193.154,274.231,156.9c36.931-9.569,71.322-25.651,101.791-46.33
					C2299.252,1584.895,2271.158,1597.144,2241.306,1604.879z"/>
			</g>
			<g>
				<path style="fill:#BD1622;" d="M2223.109,1221.035l30.546,325.255c85.418-37.366,144.648-121.489,137.077-202.105
					C2383.161,1263.57,2311.32,1213.411,2223.109,1221.035z"/>
			</g>
			<g>
				<path style="fill:#BD1622;" d="M2146.642,1241.585c-83.331,38.185-140.67,120.975-133.214,200.368
					s77.251,129.24,163.625,123.451L2146.642,1241.585z"/>
			</g>
			<g>
				<path style="fill:#BD1622;" d="M2146.642,1241.585c-83.331,38.185-140.67,120.975-133.214,200.368
					s77.251,129.24,163.625,123.451L2146.642,1241.585z"/>
			</g>
			<g>
				<path style="fill:#EE1822;" d="M2158.354,1350.061c-27.303,12.511-46.09,39.637-43.647,65.649
					c2.443,26.013,25.311,42.344,53.611,40.448L2158.354,1350.061z"/>
			</g>
			<g>
				<path style="fill:#EE1822;" d="M2231.894,1331.005c28.3-1.897,51.168,14.435,53.611,40.448
					c2.443,26.013-16.344,53.138-43.647,65.649L2231.894,1331.005z"/>
			</g>
			<g>
				<path style="fill:#6C184E;" d="M2150.435,1640.801c-50.938,0-98.45-13.784-136.514-40.493
					c-46.692-32.759-75.386-82.524-80.796-140.127c-12.214-130.049,97.297-266.802,244.119-304.844
					c78.677-20.4,156.309-9.277,212.993,30.493c46.694,32.759,75.388,82.524,80.798,140.127
					c12.214,130.049-97.297,266.807-244.119,304.849C2201.077,1637.505,2175.344,1640.801,2150.435,1640.801z M2253.794,1176.714
					c-22.285,0-45.391,2.974-68.679,9.004c-132.551,34.35-231.575,156.157-220.74,271.523c4.536,48.301,28.533,89.98,67.573,117.373
					c49.138,34.478,117.329,43.872,187.097,25.811c132.551-34.351,231.575-156.157,220.74-271.528
					c-4.536-48.296-28.535-89.98-67.576-117.373C2339.473,1188.555,2298.274,1176.714,2253.794,1176.714z"/>
			</g>
			<g>
				<g>
					<path style="fill:#F6C547;" d="M2117.588,1494.409c1.814,4.678,3.074,9.238,4.097,13.745c1.135,4.531,1.851,8.97,1.528,13.184
						c-0.479,6.23-5.916,10.898-12.148,10.42c-6.23-0.474-10.896-5.913-10.42-12.144c0.081-1.045,0.32-2.095,0.659-3.032
						c1.453-3.97,3.945-7.71,6.855-11.362C2110.959,1501.543,2113.994,1497.915,2117.588,1494.409z"/>
				</g>
				<g>
					<path style="fill:#F6C547;" d="M2081.667,1461.626c-0.708,4.99-1.846,9.6-3.164,14.048c-1.23,4.526-2.786,8.769-5.134,12.31
						c-3.457,5.205-10.479,6.626-15.686,3.169c-5.208-3.457-6.626-10.478-3.169-15.684c0.576-0.869,1.292-1.66,2.039-2.314
						c3.22-2.774,7.234-4.844,11.572-6.636C2072.375,1464.658,2076.807,1462.954,2081.667,1461.626z"/>
				</g>
				<g>
					<path style="fill:#F6C547;" d="M2072.092,1409.238c-2.908,3.765-5.977,6.982-9.116,9.971c-3.108,3.096-6.338,5.781-9.875,7.451
						c-5.659,2.671-12.415,0.249-15.085-5.415c-2.673-5.659-0.249-12.417,5.413-15.088c1.028-0.483,2.143-0.806,3.213-0.967
						c3.872-0.557,8.047-0.103,12.346,0.767C2063.254,1406.714,2067.59,1407.705,2072.092,1409.238z"/>
				</g>
				<g>
					<path style="fill:#F6C547;" d="M2092.219,1355.63c-4.343,1.255-8.477,1.978-12.522,2.475c-4.087,0.606-8.013,0.811-11.55,0.029
						c-6.123-1.352-9.993-7.417-8.638-13.54c1.353-6.123,7.412-9.99,13.538-8.638c1.206,0.269,2.366,0.742,3.374,1.338
						c3.108,1.86,5.825,4.702,8.384,7.944C2087.407,1348.379,2089.919,1351.738,2092.219,1355.63z"/>
				</g>
				<g>
					<path style="fill:#F6C547;" d="M2134.99,1319.614c-4.211-1.973-7.92-4.219-11.418-6.582c-3.599-2.305-6.816-4.819-9.104-7.832
						c-3.784-4.99-2.805-12.109,2.188-15.894c4.993-3.784,12.109-2.803,15.894,2.188c0.71,0.943,1.27,2.002,1.648,3.057
						c1.267,3.564,1.599,7.632,1.555,11.909C2135.806,1310.679,2135.649,1315.01,2134.99,1319.614z"/>
				</g>
			</g>
			<g>
				<g>
					<path style="fill:#F6C547;" d="M2300.764,1446.48c4.099,2.368,7.678,4.971,11.038,7.671c3.464,2.656,6.536,5.488,8.64,8.755
						c3.389,5.264,1.87,12.28-3.396,15.669c-5.264,3.389-12.278,1.87-15.667-3.394c-0.62-0.962-1.089-2.036-1.387-3.081
						c-1.047-3.745-1.125-7.92-0.813-12.271C2299.387,1455.522,2299.817,1451.118,2300.764,1446.48z"/>
				</g>
				<g>
					<path style="fill:#F6C547;" d="M2328.254,1396.719c4.446-0.815,8.63-1.118,12.703-1.206c4.124-0.195,8.052-0.005,11.489,1.128
						c5.957,1.958,9.199,8.379,7.239,14.336c-1.96,5.957-8.381,9.199-14.338,7.236c-1.174-0.386-2.28-0.977-3.223-1.675
						c-2.905-2.158-5.322-5.259-7.542-8.74C2332.312,1404.414,2330.151,1400.82,2328.254,1396.719z"/>
				</g>
				<g>
					<path style="fill:#F6C547;" d="M2327.61,1341.299c3.071-3.496,6.262-6.431,9.502-9.136c3.218-2.813,6.526-5.205,10.059-6.563
						c5.85-2.246,12.412,0.679,14.656,6.528c2.246,5.845-0.676,12.407-6.523,14.653c-1.101,0.42-2.278,0.659-3.394,0.732
						c-3.777,0.225-7.778-0.586-11.873-1.821C2335.969,1344.57,2331.851,1343.213,2327.61,1341.299z"/>
				</g>
				<g>
					<path style="fill:#F6C547;" d="M2299.058,1299.678c0.867-4.878,2.146-9.351,3.596-13.662c1.367-4.39,3.047-8.477,5.486-11.831
						c3.679-5.054,10.759-6.167,15.815-2.49c5.054,3.682,6.169,10.762,2.488,15.815c-0.627,0.864-1.399,1.646-2.2,2.271
						c-3.271,2.549-7.305,4.355-11.648,5.864C2308.335,1297.231,2303.901,1298.652,2299.058,1299.678z"/>
				</g>
				<g>
					<path style="fill:#F6C547;" d="M2252.617,1286.45c-1.626-4.766-2.698-9.385-3.538-13.95c-0.95-4.59-1.484-9.072-0.989-13.291
						c0.725-6.206,6.348-10.65,12.554-9.922c6.206,0.727,10.649,6.348,9.922,12.554c-0.12,1.03-0.4,2.065-0.771,2.988
						c-1.616,3.926-4.258,7.588-7.317,11.143C2259.531,1279.551,2256.35,1283.071,2252.617,1286.45z"/>
				</g>
			</g>
			<g>
				<path style="fill:#BD1622;" d="M2253.655,1561.983c-2.764,0-5.518-0.728-7.966-2.173c-4.338-2.554-7.188-7.041-7.659-12.051
					l-30.547-325.254c-0.391-4.165,0.896-8.316,3.577-11.524c2.678-3.213,6.531-5.22,10.696-5.581
					c98.726-8.564,176.328,49.219,184.602,137.314c8.044,85.664-53.53,177.324-146.414,217.954
					C2257.935,1561.548,2255.791,1561.983,2253.655,1561.983z M2240.273,1235.972l26.875,286.142
					c69.648-38.686,114.202-109.995,107.959-176.46c-6.143-65.405-61.677-109.683-134.604-109.683
					C2240.427,1235.972,2240.349,1235.972,2240.273,1235.972z"/>
			</g>
			<g>
				<path style="fill:#BD1622;" d="M2163.552,1581.553c-89.377,0-158.064-56.304-165.75-138.13
					c-7.998-85.181,50.518-174.048,142.3-216.103c4.617-2.114,9.98-1.87,14.387,0.679c4.402,2.544,7.3,7.061,7.776,12.119
					l30.413,323.818c0.396,4.219-0.93,8.418-3.674,11.641c-2.744,3.228-6.677,5.205-10.901,5.488
					C2173.203,1581.392,2168.34,1581.553,2163.552,1581.553z M2133.191,1266.221c-67.283,39.17-110.22,109.497-104.138,174.263
					c6.096,64.917,58.948,108.35,130.806,109.663L2133.191,1266.221z"/>
			</g>
		</g>
		<g>
			<g>
				
					<ellipse transform="matrix(0.8397 -0.543 0.543 0.8397 -808.269 1207.3943)" style="fill:#EE1822;" cx="1641.262" cy="1972.952" rx="251.623" ry="200.818"/>
			</g>
			<g style="opacity:0.65;">
				<path style="fill:#FFFFFF;" d="M1677.955,2171.083c-123.416,31.979-231.718-29.985-241.9-138.402
					c-10.182-108.417,81.612-222.231,205.028-254.211c90.761-23.518,173.292,3.814,214.692,63.022
					c-41.356-69.577-132.898-102.924-234.063-76.71c-130.875,33.912-228.217,154.605-217.419,269.574
					c10.797,114.969,125.645,180.679,256.52,146.767c34.546-8.952,66.716-23.995,95.217-43.338
					C1732.158,2152.389,1705.879,2163.847,1677.955,2171.083z"/>
			</g>
			<g>
				<path style="fill:#BD1622;" d="M1660.933,1812.028l28.573,304.249c79.901-34.953,135.306-113.643,128.224-189.052
					C1810.648,1851.816,1743.447,1804.896,1660.933,1812.028z"/>
			</g>
			<g>
				<path style="fill:#BD1622;" d="M1589.404,1831.251c-77.949,35.719-131.585,113.162-124.61,187.427
					c6.975,74.266,72.262,120.893,153.057,115.478L1589.404,1831.251z"/>
			</g>
			<g>
				<path style="fill:#BD1622;" d="M1589.404,1831.251c-77.949,35.719-131.585,113.162-124.61,187.427
					c6.975,74.266,72.262,120.893,153.057,115.478L1589.404,1831.251z"/>
			</g>
			<g>
				<path style="fill:#EE1822;" d="M1600.36,1932.721c-25.54,11.703-43.113,37.077-40.828,61.41
					c2.285,24.333,23.676,39.61,50.148,37.836L1600.36,1932.721z"/>
			</g>
			<g>
				<path style="fill:#EE1822;" d="M1669.151,1914.896c26.472-1.774,47.863,13.503,50.148,37.836
					c2.285,24.333-15.288,49.706-40.828,61.41L1669.151,1914.896z"/>
			</g>
			<g>
				<path style="fill:#6C184E;" d="M1592.952,2206.177c-47.957,0-92.695-12.983-128.557-38.145
					c-44.041-30.898-71.106-77.837-76.208-132.163c-11.489-122.349,91.45-250.981,229.468-286.748
					c74.028-19.18,147.097-8.701,200.476,28.75c44.041,30.899,71.106,77.837,76.208,132.163l0,0
					c11.489,122.354-91.45,250.986-229.468,286.748C1640.576,2203.076,1616.377,2206.177,1592.952,2206.177z M1689.639,1772.066
					c-20.72,0-42.209,2.764-63.87,8.374c-123.311,31.958-215.439,145.186-205.371,252.402c4.202,44.736,26.426,83.34,62.581,108.706
					c45.603,31.997,108.943,40.708,173.777,23.916c123.311-31.953,215.44-145.181,205.371-252.402l0,0
					c-4.202-44.736-26.426-83.34-62.58-108.706C1769.177,1783.047,1730.94,1772.066,1689.639,1772.066z"/>
			</g>
			<g>
				<g>
					<path style="fill:#F6C547;" d="M1584.822,2072.461c2.49,3.638,4.509,7.295,6.331,10.967c1.877,3.672,3.491,7.354,4.167,11.089
						c0.913,5.063-2.449,9.907-7.51,10.82c-5.061,0.918-9.907-2.446-10.823-7.505c-0.137-0.752-0.171-1.548-0.127-2.28
						c0.251-3.789,1.445-7.627,2.898-11.484C1581.157,2080.215,1582.754,2076.353,1584.822,2072.461z"/>
				</g>
				<g>
					<path style="fill:#F6C547;" d="M1542.915,2055.591c0.239,4.58,0.056,8.95-0.303,13.228c-0.313,4.302-0.857,8.486-2.241,12.246
						c-1.775,4.824-7.124,7.295-11.948,5.522c-4.824-1.777-7.295-7.124-5.52-11.948c0.249-0.679,0.598-1.348,0.977-1.929
						c2.214-3.34,5.266-6.255,8.55-9.048C1535.669,2060.84,1539.082,2058.11,1542.915,2055.591z"/>
				</g>
				<g>
					<path style="fill:#F6C547;" d="M1520.637,2013.882c-1.921,3.999-4.102,7.602-6.392,11.045
						c-2.261,3.481-4.666,6.748-7.585,9.229c-3.921,3.33-9.797,2.847-13.127-1.074c-3.328-3.921-2.847-9.795,1.074-13.125
						c0.576-0.488,1.24-0.918,1.887-1.245c3.433-1.699,7.38-2.617,11.475-3.32
						C1512.034,2014.649,1516.206,2014.067,1520.637,2013.882z"/>
				</g>
				<g>
					<path style="fill:#F6C547;" d="M1525.806,1961.978c-3.508,2.183-6.999,3.892-10.488,5.405
						c-3.489,1.567-6.97,2.871-10.425,3.232c-5.122,0.542-9.714-3.174-10.254-8.296c-0.542-5.122,3.174-9.712,8.296-10.254
						c0.837-0.088,1.704-0.054,2.498,0.073c3.428,0.562,6.826,2.07,10.217,3.838
						C1519.043,1957.686,1522.432,1959.6,1525.806,1961.978z"/>
				</g>
				<g>
					<path style="fill:#F6C547;" d="M1556.606,1918.091c-4.028-0.562-7.739-1.475-11.318-2.534c-3.613-1.025-7.053-2.236-9.863-4.15
						c-4.26-2.9-5.361-8.706-2.461-12.964c2.901-4.263,8.706-5.361,12.966-2.461c0.711,0.483,1.362,1.084,1.895,1.709
						c2.185,2.602,3.738,5.903,5.117,9.399C1554.358,1910.542,1555.64,1914.141,1556.606,1918.091z"/>
				</g>
			</g>
			<g>
				<g>
					<path style="fill:#F6C547;" d="M1733.574,2022.91c3.555,2.344,6.68,4.878,9.624,7.495c2.996,2.593,5.75,5.293,7.649,8.379
						c2.695,4.39,1.326,10.127-3.061,12.822c-4.385,2.695-10.125,1.328-12.82-3.057c-0.422-0.683-0.754-1.45-0.982-2.183
						c-1.05-3.467-1.24-7.324-1.194-11.284C1732.788,2031.147,1732.966,2027.124,1733.574,2022.91z"/>
				</g>
				<g>
					<path style="fill:#F6C547;" d="M1759.287,1976.362c4.018-0.483,7.82-0.552,11.528-0.444c3.735,0.059,7.349,0.347,10.53,1.475
						c4.861,1.724,7.405,7.056,5.684,11.914s-7.056,7.402-11.914,5.684c-0.818-0.293-1.606-0.713-2.283-1.187
						c-2.752-1.953-5.073-4.736-7.271-7.759C1763.337,1983.076,1761.204,1979.927,1759.287,1976.362z"/>
				</g>
				<g>
					<path style="fill:#F6C547;" d="M1758.684,1924.526c2.937-2.969,5.974-5.479,9.053-7.798c3.066-2.368,6.189-4.478,9.509-5.674
						c4.846-1.743,10.188,0.776,11.929,5.62c1.743,4.849-0.774,10.19-5.62,11.933c-0.779,0.278-1.616,0.449-2.402,0.518
						c-3.518,0.283-7.234-0.351-11.003-1.24C1766.387,1927.051,1762.585,1926.016,1758.684,1924.526z"/>
				</g>
				<g>
					<path style="fill:#F6C547;" d="M1731.975,1885.591c1.033-4.346,2.402-8.364,3.916-12.246c1.475-3.916,3.135-7.651,5.474-10.737
						c3.108-4.097,8.948-4.898,13.044-1.787c4.099,3.105,4.9,8.945,1.792,13.042c-0.452,0.6-1.001,1.152-1.557,1.611
						c-3.005,2.432-6.685,4.214-10.554,5.81C1740.259,1882.92,1736.287,1884.419,1731.975,1885.591z"/>
				</g>
				<g>
					<path style="fill:#F6C547;" d="M1688.535,1873.223c-1.223-4.385-1.992-8.647-2.566-12.861
						c-0.627-4.229-1.003-8.389-0.466-12.315c0.696-5.093,5.388-8.657,10.481-7.964c5.095,0.698,8.66,5.391,7.964,10.483
						c-0.098,0.723-0.298,1.46-0.547,2.114c-1.435,3.691-3.784,7.149-6.384,10.542
						C1694.47,1866.626,1691.731,1869.985,1688.535,1873.223z"/>
				</g>
			</g>
			<g>
				<path style="fill:#BD1622;" d="M1689.507,2132.456c-2.849,0-5.688-0.752-8.21-2.236c-4.473-2.637-7.41-7.261-7.896-12.427
					l-28.574-304.253c-0.403-4.292,0.923-8.569,3.687-11.88c2.761-3.31,6.731-5.381,11.028-5.752
					c93.132-8.071,166.477,46.543,174.294,129.805c7.583,80.747-50.388,167.124-137.844,205.386
					C1693.918,2132.007,1691.709,2132.456,1689.507,2132.456z M1678.635,1827.5l24.768,263.735
					c63.503-36.152,103.945-101.538,98.22-162.495C1795.996,1868.799,1745.351,1828.086,1678.635,1827.5z"/>
			</g>
			<g>
				<path style="fill:#BD1622;" d="M1605.205,2150.757c-84.39,0-149.255-53.223-156.516-130.566
					c-7.541-80.298,47.551-164.038,133.975-203.648c4.763-2.178,10.291-1.924,14.832,0.698c4.539,2.622,7.524,7.28,8.015,12.495
					l28.447,302.905c0.408,4.346-0.957,8.672-3.787,11.997s-6.882,5.366-11.238,5.659
					C1614.307,2150.605,1609.724,2150.757,1605.205,2150.757z M1575.554,1856.782c-61.284,36.572-100.229,101.016-94.653,160.381
					c5.579,59.414,53.65,99.326,119.219,101.187L1575.554,1856.782z"/>
			</g>
		</g>
		<g>
			<g>
				<g>
					<path style="fill:#48C75A;" d="M1309.807,1940.109c-170.916,7.02-174.288,93.686-120.006,227.382
						C1292.461,2124.621,1360.412,2049.254,1309.807,1940.109z"/>
				</g>
				<g>
					<path style="fill:#661A47;" d="M1185.659,2197.407c-2.163,0-4.329-0.435-6.362-1.304c-4.211-1.802-7.463-5.303-8.945-9.639
						c-26.096-76.323-45.222-154.136-8.774-206.279c25.354-36.274,73.728-54.673,147.886-56.25c6.157-0.259,11.985,3.32,14.79,8.892
						c21.597,42.847,25.332,85.273,11.099,126.099c-19.011,54.531-69.763,103.179-142.905,136.987
						C1190.295,2196.909,1187.979,2197.407,1185.659,2197.407z M1299.688,1956.626c-57.08,2.607-93.643,16.416-111.594,42.095
						c-25.74,36.826-12.336,99.766,7.056,159.81c55.627-29.141,95.164-68.696,109.651-110.254
						C1315.037,2018.911,1313.313,1988.125,1299.688,1956.626z"/>
				</g>
				<g>
					<path style="fill:#651B47;" d="M1314.956,1955.444c-11.121,5.142-21.792,11.621-31.951,19.966
						c-10.083,8.33-19.954,17.925-28.838,28.799c-17.82,21.802-32.686,47.1-44.968,74.756c-0.046-15.22,2.358-30.488,6.191-45.454
						c3.953-14.941,9.448-29.648,16.826-43.691c7.38-14.004,16.501-27.627,28.535-39.199c11.921-11.504,26.772-21.46,43.906-25.845
						c8.677-2.222,17.51,3.008,19.731,11.685c1.97,7.7-1.931,15.527-8.899,18.74L1314.956,1955.444z"/>
				</g>
			</g>
			<g>
				<g>
					<path style="fill:#48C75A;" d="M1619.187,1473.708c151.307-79.799,197.763-6.559,217.998,136.311
						C1726.884,1624.527,1630.266,1593.502,1619.187,1473.708z"/>
				</g>
				<g>
					<path style="fill:#661A47;" d="M1812.195,1637.695c-64.167,0-118.474-16.748-155.4-48.423
						c-32.817-28.149-50.903-66.709-53.755-114.604c-0.371-6.221,2.864-12.104,8.32-15.117
						c64.91-35.894,115.977-44.292,156.126-25.664c57.707,26.772,80.269,103.662,96.05,182.768
						c0.896,4.492-0.154,9.155-2.891,12.827c-2.737,3.677-6.904,6.016-11.465,6.445
						C1836.541,1637.109,1824.194,1637.695,1812.195,1637.695z M1636.235,1482.905c4.045,34.082,18.02,61.563,41.624,81.812
						c33.403,28.652,87.507,42.969,150.2,40.244c-13.401-61.665-33.433-122.818-74.189-141.724
						C1725.442,1450.039,1686.899,1456.48,1636.235,1482.905z"/>
				</g>
				<g>
					<path style="fill:#651B47;" d="M1615.933,1457.861c17.019-4.815,34.861-3.667,50.95,0.288
						c16.218,3.96,30.95,11.157,44.365,19.556c13.435,8.438,25.576,18.394,36.499,29.326c10.835,11.016,20.586,23.008,28.191,36.191
						c-24.517-17.744-50.078-32.148-76.438-42.046c-13.145-4.936-26.499-8.271-39.404-10.415
						c-12.974-2.109-25.459-2.349-37.654-1.206l-0.581,0.054c-8.916,0.835-16.821-5.718-17.656-14.634
						C1603.462,1467.061,1608.547,1459.946,1615.933,1457.861z"/>
				</g>
			</g>
			<g>
				<g>
					<path style="fill:#48C75A;" d="M2291.883,2011.331c-117.201-108.663-176.865-53.828-229.735,70.19
						C2158.163,2121.334,2252.864,2116.745,2291.883,2011.331z"/>
				</g>
				<g>
					<path style="fill:#661A47;" d="M2151.484,2122.891c-32.888,0-68.97-6.982-106.436-20.898c-4.011-1.494-7.205-4.614-8.784-8.594
						c-1.58-3.975-1.399-8.438,0.498-12.275c33.406-67.559,72.388-131.474,130.947-141.65
						c40.737-7.119,84.788,12.866,134.666,60.981c4.192,4.043,5.686,10.137,3.845,15.659
						c-14.177,42.529-39.839,72.939-76.272,90.391C2207.122,2117.437,2180.549,2122.891,2151.484,2122.891z M2071.609,2079.165
						c55.94,17.686,108.198,17.832,145.283,0.078c26.204-12.554,45.471-33.965,57.378-63.74
						c-39.312-36.118-72.524-51.25-101.384-46.25C2131.528,1976.441,2098.638,2026.772,2071.609,2079.165z"/>
				</g>
				<g>
					<path style="fill:#651B47;" d="M2285.107,2024.844c-10.728-3.989-22.053-6.792-34.27-8.032
						c-12.163-1.196-25.022-1.421-38.081-0.147c-26.184,2.544-52.739,9.346-79.16,19.419c10.056-10.054,21.76-18.516,34.207-25.83
						c12.505-7.217,25.872-13.262,40.039-17.617c14.141-4.331,29.177-7.256,44.773-6.899c15.474,0.327,31.853,3.613,46.042,12.08
						c7.185,4.292,9.534,13.589,5.247,20.776c-3.806,6.377-11.563,8.945-18.281,6.44L2285.107,2024.844z"/>
				</g>
			</g>
			<g>
				<g>
					<path style="fill:#48C75A;" d="M955.168,2285.706c9.252,0.533,17.956,1.318,26.935,2.316
						c8.919,0.989,17.852,2.247,26.859,3.847c9.007,1.578,18.068,3.5,27.367,6.225c9.332,2.834,18.739,5.834,29.214,12.276
						l1.188,0.73c10.58,6.505,13.883,20.356,7.377,30.936c-6.505,10.58-20.356,13.883-30.936,7.377
						c-1.201-0.738-2.397-1.657-3.406-2.57c-3.792-3.472-10.531-7.187-17.402-10.342c-6.965-3.231-14.58-6.09-22.382-8.664
						c-7.794-2.602-15.807-4.965-23.923-7.092c-8.056-2.123-16.452-4.125-24.383-5.766l-0.349-0.072
						c-7.986-1.652-13.121-9.465-11.469-17.451C941.362,2290.188,947.972,2285.283,955.168,2285.706z"/>
				</g>
				<g style="opacity:0.3;">
					<path style="fill:#6C184E;" d="M955.168,2285.706c9.252,0.533,17.956,1.318,26.935,2.316
						c8.919,0.989,17.852,2.247,26.859,3.847c9.007,1.578,18.068,3.5,27.367,6.225c9.332,2.834,18.739,5.834,29.214,12.276
						l1.188,0.73c10.58,6.505,13.883,20.356,7.377,30.936c-6.505,10.58-20.356,13.883-30.936,7.377
						c-1.201-0.738-2.397-1.657-3.406-2.57c-3.792-3.472-10.531-7.187-17.402-10.342c-6.965-3.231-14.58-6.09-22.382-8.664
						c-7.794-2.602-15.807-4.965-23.923-7.092c-8.056-2.123-16.452-4.125-24.383-5.766l-0.349-0.072
						c-7.986-1.652-13.121-9.465-11.469-17.451C941.362,2290.188,947.972,2285.283,955.168,2285.706z"/>
				</g>
				<g>
					<path style="fill:#661A47;" d="M1054.89,2365.635c-6.318,0-12.708-1.689-18.472-5.234c-1.833-1.128-3.655-2.505-5.298-3.989
						c-0.925-0.845-4.48-3.76-14.138-8.188c-6.035-2.798-12.903-5.454-21.04-8.135c-7.395-2.471-15.168-4.775-23.149-6.865
						c-8.128-2.139-16.323-4.082-23.728-5.61c-7.583-1.567-13.806-5.796-17.864-11.968c-4.06-6.177-5.471-13.564-3.972-20.801
						c2.759-13.345,15.056-22.808,28.687-22.017l0,0c8.965,0.522,17.739,1.274,27.615,2.378c9.431,1.04,18.75,2.378,27.69,3.965
						c10.852,1.904,19.993,3.984,28.733,6.543c11.003,3.345,20.938,6.65,32.344,13.667l1.199,0.737
						c16.611,10.21,21.819,32.051,11.602,48.672C1078.418,2359.644,1066.785,2365.63,1054.89,2365.635z M954.321,2298.574
						c-0.757,0-1.628,0.508-1.833,1.494c-0.129,0.63,0.076,1.108,0.268,1.406c0.195,0.293,0.557,0.674,1.182,0.801
						c8.201,1.699,16.865,3.745,25.41,6.001c8.506,2.227,16.829,4.692,24.719,7.324c9.043,2.983,16.816,5.996,23.718,9.194
						c9.304,4.272,16.279,8.496,20.691,12.534c0.42,0.376,0.994,0.815,1.475,1.113c4.48,2.749,10.4,1.338,13.171-3.164
						c2.769-4.502,1.357-10.425-3.147-13.193l-1.199-0.737c-8.796-5.41-16.736-8.042-26.199-10.918
						c-7.673-2.246-15.923-4.116-25.84-5.854c-8.538-1.519-17.048-2.739-26.055-3.735c-9.424-1.05-17.766-1.768-26.262-2.261
						C954.402,2298.584,954.356,2298.574,954.321,2298.574z"/>
				</g>
				<g>
					<g>
						<path style="fill:#48C75A;" d="M975.702,2303.232c-52.135-190.614-271.217-35.176-271.217-35.176
							S876.667,2474.24,975.702,2303.232z"/>
					</g>
					<g style="opacity:0.65;">
						<path style="fill:#FFFFFF;" d="M974.531,2305.163c0.388-0.655,0.785-1.265,1.171-1.931
							c-52.135-190.614-271.217-35.176-271.217-35.176s5.862,7.013,16.02,17.366C761.613,2259.312,920.21,2169.866,974.531,2305.163
							z"/>
					</g>
					<g>
						<path style="fill:#661A47;" d="M872.615,2383.95c-94.766,0-189.753-102.72-193.933-107.295
							c-2.546-2.788-3.743-6.548-3.279-10.293c0.466-3.74,2.546-7.095,5.696-9.175c5.493-3.623,135.625-88.398,228.872-53.286
							c38.42,14.473,64.722,46.748,78.174,95.928c0.911,3.33,0.449,6.88-1.279,9.868c-25.684,44.346-59.58,69.087-100.747,73.535
							C881.626,2383.721,877.117,2383.95,872.615,2383.95z M708.867,2270.513c28.284,27.368,105.454,94.507,174.519,87.07
							c31.128-3.379,57.473-22.266,78.374-56.157c-11.475-37.793-31.926-62.461-60.845-73.369
							C835.862,2203.535,743.291,2250.669,708.867,2270.513z"/>
					</g>
					<g>
						<g>
							<line style="fill:#48C75A;" x1="975.702" y1="2303.232" x2="828.641" y2="2284.159"/>
						</g>
						<g>
							<path style="fill:#651B47;" d="M974.043,2316.021c-12.388-0.557-24.617-2.349-36.814-4.385
								c-12.2-2.021-24.302-4.795-36.404-7.563c-24.187-5.659-48.308-11.846-72.185-19.912c25.144-1.709,50.046-1.538,74.878-0.845
								c12.407,0.415,24.817,0.82,37.126,1.978c12.315,1.143,24.595,2.524,36.716,5.146c6.987,1.514,11.426,8.403,9.915,15.391
								C985.92,2312.095,980.239,2316.309,974.043,2316.021z"/>
						</g>
					</g>
				</g>
				<g>
					<path style="fill:#661A47;" d="M868.106,2383.843c16.565-14.658,33.276-29.175,50.166-43.535
						c16.924-14.346,33.918-28.555,51.746-42.329c5.664-4.375,13.804-3.33,18.181,2.334c4.375,5.664,3.333,13.804-2.331,18.184
						c-0.662,0.508-1.355,0.942-2.073,1.309l-0.098,0.049c-19.429,9.697-38.811,20.313-58.066,31.05
						C906.37,2361.675,887.19,2372.666,868.106,2383.843z"/>
				</g>
				<g>
					<g>
						<path style="fill:#48C75A;" d="M976.297,2305.718c0,0-111.184,6.722-136.653,199.201
							C839.644,2504.919,1066.728,2432.645,976.297,2305.718z"/>
					</g>
					<g style="opacity:0.65;">
						<path style="fill:#FFFFFF;" d="M871.688,2487.041c20.882-157.81,110.783-166.026,113.971-166.268
							c-2.647-4.932-5.721-9.945-9.362-15.055c0,0-111.184,6.722-136.653,199.201c0,0,48.914-15.578,92.299-44.954
							C900.977,2477.714,871.688,2487.041,871.688,2487.041z"/>
					</g>
					<g>
						<path style="fill:#661A47;" d="M839.644,2517.817c-2.986,0-5.928-1.04-8.281-3.013c-3.384-2.832-5.085-7.202-4.504-11.582
							c26.558-200.708,143.686-210.078,148.66-210.381c4.429-0.278,8.701,1.768,11.284,5.391
							c22.883,32.119,29.238,64.141,18.892,95.176c-26.624,79.849-156.619,122.041-162.139,123.799
							C842.273,2517.617,840.955,2517.817,839.644,2517.817z M970.188,2319.741c-22.248,5.029-90.447,31.27-114.438,165.449
							c35.808-14.443,108.635-49.365,125.481-99.971C988.254,2364.126,984.646,2342.642,970.188,2319.741z"/>
					</g>
					<g>
						<path style="fill:#661A47;" d="M913.518,2389.556c8.174-15.581,16.577-31.064,25.271-46.45
							c8.743-15.396,17.607-30.649,27.773-45.815c3.997-5.962,12.07-7.559,18.032-3.56c5.964,3.999,7.559,12.07,3.562,18.032
							c-0.596,0.889-1.348,1.733-2.1,2.422c-12.568,11.353-24.844,23.931-36.897,36.587
							C937.104,2363.477,925.222,2376.426,913.518,2389.556z"/>
					</g>
				</g>
				<g>
					<g>
						<path style="fill:#48C75A;" d="M975.374,2305.153c0,0-103.662-40.759-68.389-231.685
							C906.985,2073.468,1100.609,2212.394,975.374,2305.153z"/>
					</g>
					<g style="opacity:0.65;">
						<path style="fill:#FFFFFF;" d="M937.1,2098.264c-17.094-15.446-30.115-24.797-30.115-24.797
							c-35.273,190.926,68.389,231.686,68.389,231.686c1.524-1.129,2.961-2.27,4.391-3.412
							C959.095,2286.507,905.487,2232.587,937.1,2098.264z"/>
					</g>
					<g>
						<path style="fill:#661A47;" d="M975.371,2318.052c-1.592,0-3.191-0.298-4.717-0.898
							c-4.636-1.821-113.135-46.934-76.352-246.03c0.801-4.341,3.769-7.969,7.864-9.619c4.092-1.646,8.748-1.094,12.339,1.484
							c4.707,3.379,115.295,83.687,115.93,167.856c0.249,32.71-15.693,61.201-47.385,84.673
							C980.796,2317.188,978.096,2318.052,975.371,2318.052z M916.204,2097.202c-18.657,135.029,38.091,181.064,57.695,192.725
							c20.83-17.31,30.901-36.626,30.742-58.857C1004.26,2177.734,945.796,2122.007,916.204,2097.202z"/>
					</g>
					<g>
						<path style="fill:#661A47;" d="M941.584,2206.016c7.073,16.104,14.368,32.095,21.907,47.9
							c7.551,15.762,15.339,31.523,23.782,46.201c3.589,6.216,1.458,14.165-4.758,17.754c-6.218,3.589-14.167,1.46-17.756-4.761
							c-0.532-0.923-0.962-1.973-1.248-2.949c-4.98-17.568-8.696-34.814-12.253-52.158
							C947.747,2240.684,944.541,2223.359,941.584,2206.016z"/>
					</g>
				</g>
			</g>
		</g>
		<g>
			<path style="fill:#6C184E;" d="M778.921,2826.611c0.476,0.811,0.794,1.206,1.343,1.616c0.54,0.405,1.438,0.884,2.908,1.23
				c2.896,0.747,7.566,0.747,12.488-0.015c9.995-1.509,21.03-5.322,31.763-9.819c21.611-9.146,42.864-21.162,63.618-33.882
				c41.484-25.732,81.56-54.6,120.686-84.634c39.104-30.112,77.253-61.602,114.507-94.111c9.309-8.135,18.562-16.333,27.749-24.6
				c9.265-8.262,18.086-16.641,27.729-24.985c4.753-4.15,9.436-8.384,14.243-12.466l14.714-11.875l7.366-5.918l7.578-5.625
				l15.151-11.25c82.227-58.096,173.357-101.455,267.3-134.746c46.961-16.802,94.729-31.157,143.027-43.208
				c48.262-12.153,97.061-22.192,146.26-29.185c-97.392,19.604-192.746,48.169-285.024,83.804
				c-46.099,17.954-91.155,38.403-134.919,61.118c-43.655,22.91-85.681,48.804-125.073,78.032l-14.504,11.294l-7.251,5.64
				l-7.021,5.908l-14.014,11.841c-4.568,4.063-9.001,8.262-13.508,12.378c-8.975,8.096-17.949,17.051-27.024,25.537
				c-9.067,8.569-18.201,17.065-27.393,25.498c-36.79,33.706-74.512,66.411-113.367,97.861
				c-38.918,31.377-78.752,61.777-121.34,89.004c-21.355,13.555-43.225,26.509-67.197,37.153
				c-12.075,5.225-24.548,10.054-39.099,12.583c-7.302,1.147-15.276,1.875-24.541-0.083c-4.583-0.996-9.563-2.861-14.128-6.001
				c-4.592-3.091-8.477-7.461-11.106-12.021c-4.461-7.744-1.802-17.632,5.938-22.095c7.703-4.438,17.534-1.831,22.026,5.82
				L778.921,2826.611z"/>
		</g>
		<g>
			<g style="opacity:0.3;">
				
					<ellipse transform="matrix(0.968 -0.2508 0.2508 0.968 -432.9336 731.6395)" style="fill:#6C184E;" cx="2653.715" cy="2064.195" rx="25.826" ry="18.873"/>
			</g>
			<g style="opacity:0.3;">
				
					<ellipse transform="matrix(0.968 -0.2508 0.2508 0.968 -420.183 699.6931)" style="fill:#6C184E;" cx="2534.754" cy="1998.194" rx="41.981" ry="30.679"/>
			</g>
			<g style="opacity:0.3;">
				
					<ellipse transform="matrix(0.9355 -0.3532 0.3532 0.9355 -496.3787 917.8495)" style="fill:#6C184E;" cx="2266.376" cy="1818.817" rx="32.737" ry="25.721"/>
			</g>
			<g style="opacity:0.3;">
				
					<ellipse transform="matrix(0.9355 -0.3532 0.3532 0.9355 -365.6739 1007.223)" style="fill:#6C184E;" cx="2576.611" cy="1505.434" rx="22.634" ry="17.783"/>
			</g>
			<g style="opacity:0.3;">
				
					<ellipse transform="matrix(0.9355 -0.3532 0.3532 0.9355 -446.0578 1036.8267)" style="fill:#6C184E;" cx="2617.468" cy="1740.436" rx="25.711" ry="20.201"/>
			</g>
			<g style="opacity:0.3;">
				<path style="fill:#6C184E;" d="M2373.079,1659.447c3.25,8.607-2.996,18.939-13.951,23.075s-22.471,0.512-25.721-8.095
					c-3.25-8.608,2.996-18.939,13.951-23.075C2358.313,1647.215,2369.829,1650.839,2373.079,1659.447z"/>
			</g>
			<g style="opacity:0.3;">
				
					<ellipse transform="matrix(0.8111 -0.5849 0.5849 0.8111 -769.461 1535.2504)" style="fill:#6C184E;" cx="1992.115" cy="1958.89" rx="23.357" ry="18.351"/>
			</g>
			<g style="opacity:0.3;">
				
					<ellipse transform="matrix(0.8111 -0.5849 0.5849 0.8111 -628.9932 1523.5541)" style="fill:#6C184E;" cx="2044.234" cy="1735.57" rx="23.17" ry="18.204"/>
			</g>
			<g style="opacity:0.3;">
				
					<ellipse transform="matrix(0.8111 -0.5849 0.5849 0.8111 -1108.0526 1220.1211)" style="fill:#6C184E;" cx="1334.937" cy="2325.522" rx="30.765" ry="24.172"/>
			</g>
			<g style="opacity:0.3;">
				
					<ellipse transform="matrix(0.8111 -0.5849 0.5849 0.8111 -1009.5976 1198.01)" style="fill:#6C184E;" cx="1349.935" cy="2162.043" rx="26.008" ry="20.434"/>
			</g>
			<g style="opacity:0.3;">
				
					<ellipse transform="matrix(0.8111 -0.5849 0.5849 0.8111 -1243.7644 1113.0024)" style="fill:#6C184E;" cx="1101.263" cy="2482.092" rx="17.105" ry="13.439"/>
			</g>
			<g style="opacity:0.3;">
				
					<ellipse transform="matrix(0.8111 -0.5849 0.5849 0.8111 -833.8004 1144.9154)" style="fill:#6C184E;" cx="1355.649" cy="1863.341" rx="26.008" ry="20.434"/>
			</g>
			<g style="opacity:0.3;">
				
					<ellipse transform="matrix(0.8111 -0.5849 0.5849 0.8111 -695.3087 1246.9572)" style="fill:#6C184E;" cx="1582.852" cy="1699.937" rx="33.967" ry="26.688"/>
			</g>
		</g>
		<g>
			<g>
				<g>
					<g>
						<path style="fill:#EB984E;" d="M2879.178,2111.794c-32.571,185.323,390.525,215.335,390.525,215.335
							s267.967-627.244-164.377-1162.587S2084.868,710.367,2020.79,836.788c-64.078,126.421,62.874,184.243,62.874,184.243
							S3055.834,1106.651,2879.178,2111.794z"/>
					</g>
					<g style="opacity:0.65;">
						<path style="fill:#FFFFFF;" d="M3105.326,1164.543C2672.982,629.199,2084.868,710.367,2020.79,836.788
							c-57.083,112.621,37.434,170.802,58.748,182.162c-25.671-27.685-47.012-73.156-14.082-138.125
							c14.006-27.632,54.953-52.934,114.605-69.013c-13.76,8.783-21.446,18.835-19.786,28.125
							c3.349,18.749,43.411,27.276,89.48,19.046c46.069-8.23,80.701-30.1,77.352-48.848c-1.202-6.729-7.191-12.113-16.432-15.906
							c209.88-5.222,514.185,83.173,763.026,391.296c401.931,497.685,152.814,1080.806,152.814,1080.806
							s-279.048-19.803-348.963-129.006c8.569,162.59,392.15,189.806,392.15,189.806S3537.67,1699.886,3105.326,1164.543z"/>
					</g>
					<g style="opacity:0.3;">
						<path style="fill:#6C184E;" d="M3269.703,2327.129c0,0,36.497-85.527,60.82-220.285
							c-44.263-42.084-111.478-76.812-182.133-105.215c-62.375-25.075-101.073-87.719-95.27-154.695
							c14.981-172.907,14.235-390.744-135.627-576.309c-338.027-418.557-796.134-361.734-857.421-263.952
							c13.269,9.649,23.593,14.358,23.593,14.358s972.17,85.62,795.514,1090.764
							C2846.607,2297.117,3269.703,2327.129,3269.703,2327.129z"/>
					</g>
					<g>
						<path style="fill:#6C184E;" d="M3269.709,2345.615c-0.437,0-0.874-0.015-1.316-0.044
							c-11.907-0.845-292.649-21.997-381.731-136.069c-23.523-30.122-32.168-64.072-25.693-100.903
							c52.502-298.74,7.168-544.072-134.746-729.185c-229.9-299.888-640.073-339.6-644.189-339.966
							c-2.083-0.185-4.128-0.727-6.033-1.592c-2.573-1.172-63.247-29.394-84.536-90.132c-12.922-36.865-8.604-77.002,12.834-119.297
							c25.156-49.629,110.481-87.817,222.673-99.653c245.095-25.84,608.325,71.987,892.737,424.15
							c227.043,281.133,260.393,587.354,248.391,794.731c-12.986,224.375-78.611,380.21-81.396,386.738
							C3283.781,2341.235,3277.065,2345.615,3269.709,2345.615z M2879.177,2111.797l18.208,3.198
							c-4.648,26.455,1.377,49.922,18.418,71.748c68.933,88.267,285.53,115.161,341.773,120.737
							c15.515-41.021,63.284-180.22,73.687-363.296c11.396-200.508-21.048-496.518-240.318-768.027
							c-275.095-340.63-624.712-435.439-860.09-410.61c-111.829,11.797-177.8,48.481-193.572,79.6
							c-16.655,32.856-20.361,63.164-11.016,90.083c13.813,39.785,52.42,62.358,62.617,67.739
							c19.932,2.085,117.361,14.004,240.32,57.852c125.088,44.609,300.564,132.143,426.167,295.835
							c148.628,193.706,196.409,448.848,142.014,758.34L2879.177,2111.797z"/>
					</g>
				</g>
				<g>
					<path style="fill:#F7AF41;" d="M3269.703,2327.129c0,0-82.777,93.473-246.323,42.745
						c-163.546-50.727-201.869-163.774-144.202-258.08C2936.844,2017.488,3386.96,2136.392,3269.703,2327.129z"/>
				</g>
				<g style="opacity:0.3;">
					<path style="fill:#6C184E;" d="M3269.703,2327.129c0,0-82.777,93.473-246.323,42.745
						c-163.546-50.727-201.869-163.774-144.202-258.08C2936.844,2017.488,3386.96,2136.392,3269.703,2327.129z"/>
				</g>
				<g>
					<path style="fill:#6C184E;" d="M3117.632,2403.589c-29.37,0-62.61-4.546-99.726-16.06
						c-113.164-35.098-156.216-93.638-172.405-136.567c-17.979-47.681-11.621-100.527,17.905-148.809
						c22.327-36.519,77.971-42.827,120.757-41.743c111.706,2.91,261.248,59.487,308.052,145.82
						c22.537,41.572,20.198,86.724-6.763,130.581c-0.559,0.913-1.199,1.772-1.909,2.573
						C3280.635,2342.671,3225.117,2403.589,3117.632,2403.589z M2975.381,2097.271c-41.284,0-71.074,8.872-80.432,24.17
						c-23.781,38.892-28.916,79.17-14.851,116.475c18.772,49.775,71.602,90.366,148.76,114.302
						c141.641,43.926,216.165-26.147,226.035-36.318c19.314-32.275,20.886-62.402,4.817-92.041
						c-39.236-72.378-174.651-123.833-276.509-126.484C2980.552,2097.305,2977.942,2097.271,2975.381,2097.271z M3269.702,2327.129
						h0.052H3269.702z"/>
				</g>
			</g>
			<g>
				<g>
					<path style="fill:#6D184E;" d="M2313.521,940.762c-3.853-8.223-5.212-17.251-5.229-26.216
						c0.027-8.999,1.738-18.052,4.949-26.65c3.054-8.652,8.159-16.709,14.753-23.189c6.475-6.582,14.949-11.167,23.992-12.959
						c-4.329,8.457-9.026,14.761-12.551,21.895c-3.782,6.821-7.314,13.511-10.342,20.63c-3.069,7.08-5.759,14.453-8.262,22.163
						C2318.362,924.175,2316.04,932.129,2313.521,940.762z"/>
				</g>
				<g>
					<path style="fill:#6D184E;" d="M2362.546,973.135c-2.642-12.012-2.034-24.424-0.073-36.558
						c2.122-12.139,6.282-24.018,12.217-35.049c5.754-11.128,13.94-21.133,23.701-29.048c2.522-1.899,4.951-3.872,7.573-5.571
						c2.742-1.563,5.503-3.052,8.289-4.434c2.695-1.519,5.715-2.471,8.684-3.403c3.013-0.859,5.972-1.704,9.011-2.251
						c-8.284,9.497-16.631,16.943-23.372,26.001c-7.019,8.623-13.467,17.476-18.994,27.09c-5.603,9.541-10.513,19.619-14.922,30.166
						C2370.198,950.63,2366.394,961.572,2362.546,973.135z"/>
				</g>
			</g>
			<g>
				<g>
					<path style="fill:#6D184E;" d="M3054.446,1761.89c10.219-8.218,22.332-13.633,34.836-17.646
						c12.578-3.862,25.884-5.708,39.251-5.483c13.372,0.01,26.858,2.827,39.18,8.11c3.044,1.44,6.113,2.749,9.026,4.375
						c2.837,1.807,5.622,3.662,8.323,5.586c2.779,1.782,5.196,4.136,7.566,6.455c2.327,2.393,4.617,4.741,6.677,7.3
						c-12.949-3.438-24.133-7.857-36.091-9.912c-11.685-2.524-23.35-4.331-35.273-4.834c-11.892-0.61-23.943-0.264-36.16,0.84
						C3079.529,1757.739,3067.253,1759.639,3054.446,1761.89z"/>
				</g>
				<g>
					<path style="fill:#6D184E;" d="M3033.914,1847.388c15.999-8.276,33.691-12.944,51.616-15.581
						c17.976-2.602,36.455-2.451,54.626,0.313c4.517,0.869,9.111,1.348,13.564,2.559c4.441,1.255,8.906,2.417,13.313,3.765
						c4.402,1.362,8.613,3.345,12.871,5.098l6.338,2.739l6.023,3.423c3.948,2.393,7.964,4.619,11.739,7.207
						c3.647,2.822,7.151,5.811,10.679,8.677c1.745,1.46,3.532,2.852,5.1,4.516l4.597,5.083c2.966,3.467,5.903,6.89,8.584,10.488
						c-16.213-8.32-30.733-17.275-46.951-22.866l-5.85-2.451l-6.067-1.904c-4.06-1.196-7.959-2.803-12.049-3.852
						c-4.118-0.957-8.179-2.09-12.265-3.135c-4.065-1.123-8.291-1.631-12.429-2.49c-16.66-2.969-33.697-4.38-50.964-4.595
						C3069.111,1844.287,3051.702,1845.327,3033.914,1847.388z"/>
				</g>
			</g>
		</g>
		<g>
			<g>
				<path style="fill:#48C75A;" d="M2505.578,1698.942c131.044-69.113,171.279-5.681,188.804,118.056
					C2598.853,1829.563,2515.174,1802.693,2505.578,1698.942z"/>
			</g>
			<g>
				<path style="fill:#661A47;" d="M2672.725,1840.967c-55.569,0-102.593-14.502-134.573-41.933
					c-28.425-24.38-44.089-57.774-46.56-99.258c-0.32-5.391,2.483-10.483,7.207-13.096c56.216-31.089,100.444-38.359,135.217-22.226
					c49.98,23.184,69.519,89.78,83.188,158.291c0.776,3.887-0.134,7.925-2.505,11.108c-2.371,3.184-5.979,5.21-9.929,5.581
					C2693.821,1840.459,2683.12,1840.967,2672.725,1840.967z M2520.344,1706.909c3.503,29.517,15.608,53.32,36.05,70.854
					c28.931,24.815,75.747,37.207,130.085,34.854c-11.606-53.408-28.955-106.372-64.255-122.744
					C2597.61,1678.442,2564.221,1684.019,2520.344,1706.909z"/>
			</g>
			<g>
				<path style="fill:#651B47;" d="M2502.761,1685.215c14.739-4.17,30.193-3.174,44.124,0.249
					c14.048,3.433,26.807,9.668,38.425,16.938c11.636,7.31,22.151,15.928,31.611,25.401c9.385,9.541,17.827,19.927,24.417,31.343
					c-21.233-15.366-43.372-27.842-66.204-36.411c-11.384-4.277-22.949-7.168-34.126-9.023c-11.235-1.826-22.048-2.036-32.612-1.045
					l-0.503,0.049c-7.722,0.723-14.568-4.951-15.291-12.676C2491.96,1693.184,2496.365,1687.021,2502.761,1685.215z"/>
			</g>
		</g>
	</g>
</g>
</svg>
